<?xml version="1.0" encoding="UTF-8" standalone="no"?>
<!-- Created with Inkscape (http://www.inkscape.org/) -->

<svg
   xmlns:osb="http://www.openswatchbook.org/uri/2009/osb"
   xmlns:dc="http://purl.org/dc/elements/1.1/"
   xmlns:cc="http://creativecommons.org/ns#"
   xmlns:rdf="http://www.w3.org/1999/02/22-rdf-syntax-ns#"
   xmlns:svg="http://www.w3.org/2000/svg"
   xmlns="http://www.w3.org/2000/svg"
   xmlns:xlink="http://www.w3.org/1999/xlink"
   xmlns:sodipodi="http://sodipodi.sourceforge.net/DTD/sodipodi-0.dtd"
   xmlns:inkscape="http://www.inkscape.org/namespaces/inkscape"
   width="64px"
   height="64px"
   id="svg3843"
   version="1.1"
   inkscape:version="0.48.3.1 r9886"
   sodipodi:docname="Hearticon-good.svg">
  <defs
     id="defs3845">
    <linearGradient
       id="linearGradient4524"
       inkscape:collect="always">
      <stop
         id="stop4526"
         offset="0"
         style="stop-color:#ffffff;stop-opacity:1" />
      <stop
         id="stop4528"
         offset="1"
         style="stop-color:#ff0000;stop-opacity:1" />
    </linearGradient>
    <linearGradient
       id="linearGradient3804"
       inkscape:collect="always">
      <stop
         id="stop3806"
         offset="0"
         style="stop-color:#ffffff;stop-opacity:1" />
      <stop
         id="stop3808"
         offset="1"
         style="stop-color:#ffff00;stop-opacity:0.78059071" />
    </linearGradient>
    <linearGradient
       id="linearGradient3798"
       inkscape:collect="always">
      <stop
         id="stop3800"
         offset="0"
         style="stop-color:#ffffff;stop-opacity:1" />
      <stop
         id="stop3802"
         offset="1"
         style="stop-color:#ffff00;stop-opacity:0.78059071" />
    </linearGradient>
    <linearGradient
       inkscape:collect="always"
       id="linearGradient4196">
      <stop
         style="stop-color:#ff0000;stop-opacity:0"
         offset="0"
         id="stop4198" />
      <stop
         style="stop-color:#ff0000;stop-opacity:1"
         offset="1"
         id="stop4200" />
    </linearGradient>
    <linearGradient
       inkscape:collect="always"
       id="linearGradient3870">
      <stop
         style="stop-color:#ff0000;stop-opacity:0"
         offset="0"
         id="stop3872" />
      <stop
         style="stop-color:#ff0000;stop-opacity:0;"
         offset="1"
         id="stop3874" />
    </linearGradient>
    <linearGradient
       inkscape:collect="always"
       id="linearGradient3784">
      <stop
         style="stop-color:#ffff00;stop-opacity:0"
         offset="0"
         id="stop3786" />
      <stop
         style="stop-color:#ffff00;stop-opacity:0.78059071"
         offset="1"
         id="stop3788" />
    </linearGradient>
    <linearGradient
       id="linearGradient4572"
       osb:paint="gradient">
      <stop
         style="stop-color:#ffff00;stop-opacity:1;"
         offset="0"
         id="stop4574" />
      <stop
         style="stop-color:#ffff00;stop-opacity:0;"
         offset="1"
         id="stop4576" />
    </linearGradient>
    <filter
       color-interpolation-filters="sRGB"
       inkscape:collect="always"
       id="filter3867">
      <feGaussianBlur
         inkscape:collect="always"
         stdDeviation="0.083090269"
         id="feGaussianBlur3869" />
    </filter>
    <filter
       color-interpolation-filters="sRGB"
       inkscape:collect="always"
       id="filter5772">
      <feGaussianBlur
         inkscape:collect="always"
         stdDeviation="0.040877432"
         id="feGaussianBlur5774" />
    </filter>
    <filter
       color-interpolation-filters="sRGB"
       inkscape:collect="always"
       id="filter5788">
      <feGaussianBlur
         inkscape:collect="always"
         stdDeviation="0.042225165"
         id="feGaussianBlur5790" />
    </filter>
    <filter
       color-interpolation-filters="sRGB"
       inkscape:collect="always"
       id="filter5854"
       x="-0.18000001"
       width="1.36"
       y="-0.18000001"
       height="1.36">
      <feGaussianBlur
         inkscape:collect="always"
         stdDeviation="0.04453125"
         id="feGaussianBlur5856" />
    </filter>
    <filter
       color-interpolation-filters="sRGB"
       inkscape:collect="always"
       id="filter6102"
       x="-0.6815331"
       width="2.3630662"
       y="-0.6815331"
       height="2.3630662">
      <feGaussianBlur
         inkscape:collect="always"
         stdDeviation="3.1004638"
         id="feGaussianBlur6104" />
    </filter>
    <radialGradient
       inkscape:collect="always"
       xlink:href="#linearGradient3784"
       id="radialGradient3790"
       cx="31.919737"
       cy="32.291191"
       fx="31.919737"
       fy="32.291191"
       r="29.599226"
       gradientTransform="matrix(-2.2171684,-2.2426483,0.44789828,-0.44280948,88.227999,118.17478)"
       gradientUnits="userSpaceOnUse" />
    <radialGradient
       inkscape:collect="always"
       xlink:href="#linearGradient3870"
       id="radialGradient3876"
       cx="-27.222157"
       cy="54.287062"
       fx="-27.222157"
       fy="54.287062"
       r="28.937228"
       gradientTransform="matrix(1,0,0,1.0023131,0,-0.12556949)"
       gradientUnits="userSpaceOnUse" />
    <radialGradient
       inkscape:collect="always"
       xlink:href="#linearGradient4196"
       id="radialGradient4223"
       gradientUnits="userSpaceOnUse"
       gradientTransform="matrix(0.48766789,-0.51281491,2.4781034,2.3565841,-148.49087,-87.613174)"
       cx="-27.222118"
       cy="54.293179"
       fx="-27.222118"
       fy="54.293179"
       r="28.995158" />
    <radialGradient
       inkscape:collect="always"
       xlink:href="#linearGradient3798"
       id="radialGradient4252"
       gradientUnits="userSpaceOnUse"
       gradientTransform="matrix(-2.2171684,-2.2426483,0.44789828,-0.44280948,88.227999,118.17478)"
       cx="31.919737"
       cy="32.291191"
       fx="31.919737"
       fy="32.291191"
       r="29.599226" />
    <radialGradient
       inkscape:collect="always"
       xlink:href="#linearGradient3804"
       id="radialGradient4254"
       gradientUnits="userSpaceOnUse"
       gradientTransform="matrix(-2.2171684,-2.2426483,0.44789828,-0.44280948,88.227999,118.17478)"
       cx="31.919737"
       cy="32.291191"
       fx="31.919737"
       fy="32.291191"
       r="29.599226" />
    <radialGradient
       inkscape:collect="always"
       xlink:href="#linearGradient4196"
       id="radialGradient4513"
       gradientUnits="userSpaceOnUse"
       gradientTransform="matrix(0.48766789,-0.51281491,2.4781034,2.3565841,-148.49087,-87.613174)"
       cx="-27.222118"
       cy="54.293179"
       fx="-27.222118"
       fy="54.293179"
       r="28.995158" />
    <radialGradient
       inkscape:collect="always"
       xlink:href="#linearGradient4524"
       id="radialGradient4516"
       gradientUnits="userSpaceOnUse"
       gradientTransform="matrix(0.50524466,-0.53129804,2.5674204,2.4415213,-93.621186,-115.19569)"
       cx="-27.222118"
       cy="54.293179"
       fx="-27.222118"
       fy="54.293179"
       r="28.995158" />
  </defs>
  <sodipodi:namedview
     id="base"
     pagecolor="#ffffff"
     bordercolor="#666666"
     borderopacity="1.0"
     inkscape:pageopacity="0.0"
     inkscape:pageshadow="2"
     inkscape:zoom="6.4980192"
     inkscape:cx="26.526309"
     inkscape:cy="44.180482"
     inkscape:current-layer="layer1"
     showgrid="false"
     inkscape:document-units="px"
     inkscape:grid-bbox="true"
     showguides="false"
     inkscape:guide-bbox="true"
     inkscape:window-width="1920"
     inkscape:window-height="1021"
     inkscape:window-x="0"
     inkscape:window-y="27"
     inkscape:window-maximized="1" />
  <metadata
     id="metadata3848">
    <rdf:RDF>
      <cc:Work
         rdf:about="">
        <dc:format>image/svg+xml</dc:format>
        <dc:type
           rdf:resource="http://purl.org/dc/dcmitype/StillImage" />
        <dc:title />
      </cc:Work>
    </rdf:RDF>
  </metadata>
  <g
     inkscape:groupmode="layer"
     id="layer2"
     inkscape:label="Background fill"
     style="display:inline">
    <g
       id="g3895"
       style="fill:#ffff00;fill-opacity:1;fill-rule:nonzero;stroke:none"
       transform="matrix(1.0360425,0,0,1.0360425,-1.2221382,-0.974609)">
      <g
         id="g6169"
         style="fill:url(#radialGradient3790);fill-opacity:1">
        <path
           style="fill:url(#radialGradient4252);fill-opacity:1;fill-rule:nonzero;stroke:none"
           d="m 31.8418,10.87105 c 0,0 4.476971,-9.98452762 16.677815,-8.4393757 15.188888,1.923567 16.632984,29.9719027 6.597259,38.0149947 -10.4243,8.354513 -13.703399,6.523514 -23.275074,21.864386"
           id="path3853"
           inkscape:connector-curvature="0"
           sodipodi:nodetypes="cssc" />
        <path
           style="fill:url(#radialGradient4254);fill-opacity:1;fill-rule:nonzero;stroke:none"
           d="m 31.997669,10.873179 c 0,0 -4.476971,-9.98452512 -16.677815,-8.439373 C 0.13096889,4.3573726 -1.3131269,32.405706 8.7225982,40.448798 19.146895,48.803311 22.425994,46.972312 31.997669,62.313184"
           id="path3853-7"
           inkscape:connector-curvature="0"
           sodipodi:nodetypes="cssc" />
      </g>
    </g>
    <path
       style="fill:url(#radialGradient3876);fill-opacity:1;fill-rule:nonzero;stroke:none"
       d="m -28.442162,81.509955 c -3.160483,-4.764447 -6.161233,-8.197498 -9.257041,-10.590655 -0.645974,-0.499356 -2.918246,-2.062367 -5.049496,-3.473359 -7.653144,-5.066754 -9.166532,-6.440634 -10.879611,-9.876705 -1.018241,-2.042373 -1.818673,-4.697469 -2.250655,-7.465604 -0.313127,-2.006514 -0.375523,-5.913686 -0.128754,-8.0625 0.960633,-8.365012 4.68012,-14.321612 10.07152,-16.129109 1.846105,-0.618917 5.198486,-0.81618 7.375,-0.433964 4.355519,0.764869 8.113706,3.367168 10.385618,7.191365 0.417303,0.702424 0.555048,0.847382 0.718364,0.755985 0.12517,-0.07005 0.296151,-0.06272 0.449315,0.01925 0.158715,0.08494 0.261944,0.08825 0.288277,0.0093 0.132653,-0.397954 1.381138,-2.227287 2.015594,-2.953332 2.366536,-2.708159 5.496823,-4.481532 8.891545,-5.037245 1.41049,-0.230897 4.169518,-0.227405 5.501286,0.007 4.0786302,0.717763 7.2656127,3.332558 9.4277602,7.735111 1.73334124,3.52942 2.5869687,7.561417 2.5984075,12.27323 0.013312,5.48328 -1.26873626,10.423514 -3.6331637,14 -1.3853275,2.095477 -3.5317125,3.840005 -9.955504,8.091586 -4.639997,3.070979 -5.797743,3.950332 -7.692455,5.842725 -2.192556,2.189871 -4.010641,4.469485 -6.357947,7.971939 -0.702651,1.048437 -1.290816,1.90625 -1.307035,1.90625 -0.01622,0 -0.561179,-0.801529 -1.211025,-1.781177 l 0,0 z m 3.030915,-1.531323 c 2.727769,-4.100404 5.081775,-6.88469 7.600861,-8.990198 0.584824,-0.488807 2.806699,-2.048553 4.9375,-3.466103 4.3981713,-2.925953 6.0988663,-4.167479 7.4111812,-5.410244 3.2040788,-3.034269 5.150505,-8.776969 5.150505,-15.195955 0,-5.218605 -1.2654187,-9.988941 -3.5895562,-13.5318 -0.32678,-0.498135 -1.06134,-1.391931 -1.6323563,-1.986214 -2.1615949,-2.249672 -4.4367349,-3.32181 -7.6391587,-3.599882 -5.398094,-0.468726 -10.281012,1.66099 -13.352364,5.823716 l -0.75134,1.01832 -0.661508,-0.924965 c -1.322777,-1.849592 -3.521697,-3.682892 -5.522737,-4.604458 -2.122756,-0.977621 -3.842036,-1.333815 -6.475979,-1.34167 -3.198192,-0.0095 -5.321791,0.61795 -7.5,2.216122 -3.185121,2.33695 -5.424157,6.505041 -6.393353,11.901578 -0.379296,2.111942 -0.465448,6.485473 -0.173184,8.791757 0.471355,3.719511 1.703408,7.243246 3.356821,9.600677 1.250065,1.782339 3.441859,3.589948 7.959716,6.564505 5.312748,3.497915 5.874602,3.92269 7.937499,6.000941 1.928355,1.942706 3.398888,3.801685 5.505413,6.959689 1.528561,2.291549 1.557806,2.32562 1.984909,2.3125 0.418432,-0.01285 0.482588,-0.08712 1.847131,-2.138316 l 0,0 z"
       id="path3868"
       inkscape:connector-curvature="0" />
  </g>
  <g
     inkscape:groupmode="layer"
     id="layer3"
     inkscape:label="Swigly lines"
     style="display:inline">
    <g
       style="display:inline"
       id="g6054"
       transform="matrix(1.1972884,0,0,1.1972884,-3.7907443,-5.1375886)">
      <g
         inkscape:export-ydpi="1698.0615"
         inkscape:export-xdpi="1698.0615"
         transform="matrix(1.3314255,5.6020814e-4,-0.02605102,1.3140252,-1.0606921,2.286039)"
         style="stroke:#0000ff;stroke-width:0.55000001;stroke-miterlimit:4;stroke-opacity:1;stroke-dasharray:none;display:inline;filter:url(#filter3867)"
         id="g5858">
        <path
           style="fill:none;stroke:#0000ff;stroke-width:0.55000001;stroke-linecap:butt;stroke-linejoin:miter;stroke-miterlimit:4;stroke-opacity:1;stroke-dasharray:none;filter:url(#filter5772)"
           d="m 5.5279018,22.571429 1.7578125,0 c 1.4945492,-2.298162 2.6209837,-1.577783 3.6428567,0 l 5.571429,0 c 0.929246,-2.501655 1.558452,0.04841 2.054341,-5.97e-4 l 0.517088,5.97e-4 c 1.073904,8.968713 0.876383,-38.481939 2.571428,0 0.769809,16.40112 1.210388,10.456303 2.357143,0 l 2.785714,0 c 1.026619,-2.116107 2.226817,-1.834065 3.285715,0 l 3.928571,0"
           id="path3124"
           inkscape:connector-curvature="0"
           sodipodi:nodetypes="ccccccccccc" />
        <path
           sodipodi:type="arc"
           style="fill:none;stroke:#0000ff;stroke-width:0.55000001;stroke-miterlimit:4;stroke-opacity:1;stroke-dasharray:none;marker-start:none;marker-end:none;filter:url(#filter5788)"
           id="path3916"
           sodipodi:cx="34.333347"
           sodipodi:cy="22.6357"
           sodipodi:rx="1.4418349"
           sodipodi:ry="1.3731761"
           d="m 35.775182,22.6357 c 0,0.758384 -0.645531,1.373176 -1.441835,1.373176 -0.796303,0 -1.441835,-0.614792 -1.441835,-1.373176 0,-0.758384 0.645532,-1.373176 1.441835,-1.373176 0.796304,0 1.441835,0.614792 1.441835,1.373176 z"
           transform="translate(-0.31772232,-0.113166)" />
        <path
           sodipodi:type="arc"
           style="fill:#007bff;fill-opacity:1;stroke:#0000ff;stroke-width:0.55000001;stroke-miterlimit:4;stroke-opacity:1;stroke-dasharray:none;filter:url(#filter5854)"
           id="path5792"
           sodipodi:cx="33.976562"
           sodipodi:cy="22.570312"
           sodipodi:rx="0.296875"
           sodipodi:ry="0.296875"
           d="m 34.273437,22.570312 c 0,0.16396 -0.132915,0.296875 -0.296875,0.296875 -0.163959,0 -0.296875,-0.132915 -0.296875,-0.296875 0,-0.163959 0.132916,-0.296875 0.296875,-0.296875 0.16396,0 0.296875,0.132916 0.296875,0.296875 z"
           transform="translate(0.0234375,0.01104854)" />
      </g>
      <path
         transform="matrix(1.3314255,5.6020814e-4,-0.02605102,1.3140252,0.16347285,2.7793182)"
         d="m 38.615349,22 c 0,3.014977 -2.444122,5.459099 -5.459099,5.459099 -3.014977,0 -5.459099,-2.444122 -5.459099,-5.459099 0,-3.014977 2.444122,-5.459099 5.459099,-5.459099 3.014977,0 5.459099,2.444122 5.459099,5.459099 z"
         sodipodi:ry="5.4590988"
         sodipodi:rx="5.4590988"
         sodipodi:cy="22"
         sodipodi:cx="33.15625"
         id="path6068"
         style="fill:#3c82ff;fill-opacity:1;stroke:#0000ff;stroke-width:0.2;stroke-miterlimit:4;stroke-opacity:1;stroke-dasharray:none;display:inline;filter:url(#filter6102)"
         sodipodi:type="arc" />
    </g>
  </g>
  <g
     id="layer1"
     inkscape:label="Outline"
     inkscape:groupmode="layer"
     style="display:inline">
    <g
       id="g4535">
      <g
         transform="matrix(1.0360425,0,0,1.0360425,50.697961,11.289172)"
         id="g3820">
        <path
           style="fill:none;stroke:#000000;stroke-width:0.98694479px;stroke-linecap:butt;stroke-linejoin:miter;stroke-opacity:1"
           d="m -18.14399,1.472357 c 0,0 3.998097,-8.9165457 14.8938939,-7.536669 13.5642281,1.7178152 14.8538591,26.765997 5.8915919,33.948771 -9.3092784,7.460883 -12.2376329,5.825735 -20.7854858,19.52569"
           id="path3853-3"
           inkscape:connector-curvature="0"
           sodipodi:nodetypes="cssc" />
        <path
           style="fill:none;stroke:#000000;stroke-width:0.98694479px;stroke-linecap:butt;stroke-linejoin:miter;stroke-opacity:1"
           d="m -18.004794,1.4742583 c 0,0 -3.998097,-8.9165435 -14.893894,-7.5366666 -13.564226,1.7178148 -14.853856,26.7659953 -5.891589,33.9487683 9.309275,7.460883 12.23763,5.825735 20.785483,19.525691"
           id="path3853-7-1"
           inkscape:connector-curvature="0"
           sodipodi:nodetypes="cssc" />
        <path
           style="fill:none;stroke:#000000;stroke-width:1.10515642px;stroke-linecap:butt;stroke-linejoin:miter;stroke-opacity:1"
           d="m -18.109159,-1.260762 c 0,0 4.476971,-9.984528 16.677815,-8.4393757 15.188888,1.923567 16.632984,29.9719027 6.597259,38.0149947 -10.4243,8.354513 -13.703399,6.523514 -23.275074,21.864386"
           id="path3853-3-0"
           inkscape:connector-curvature="0"
           sodipodi:nodetypes="cssc" />
        <path
           style="fill:none;stroke:#000000;stroke-width:1.10515642px;stroke-linecap:butt;stroke-linejoin:miter;stroke-opacity:1"
           d="m -17.95329,-1.258633 c 0,0 -4.476971,-9.984525 -16.677815,-8.439373 -15.188885,1.9235666 -16.632981,29.9719 -6.597256,38.014992 10.424297,8.354513 13.703396,6.523514 23.275071,21.864386"
           id="path3853-7-1-0"
           inkscape:connector-curvature="0"
           sodipodi:nodetypes="cssc" />
      </g>
      <path
         inkscape:connector-curvature="0"
         id="path4186"
         d="m 31.452289,61.134782 c -0.708008,-1.123865 -2.10835,-3.146592 -3.102904,-4.482 -1.489182,-1.999551 -2.487459,-3.160809 -4.153024,-4.831048 -2.291817,-2.29825 -3.669267,-3.365068 -7.656507,-5.929877 C 13.207878,43.748553 11.043115,42.237582 8.9664658,40.605751 6.3314709,38.535175 4.6789572,36.047159 3.4271858,32.265842 1.1078399,25.259631 1.6100999,16.242089 4.6664377,10.016372 5.6231193,8.0676262 6.5688852,6.7091725 7.8875456,5.3897268 9.9275195,3.3485355 12.188871,2.2216238 15.025176,1.8327929 c 0.984234,-0.134929 3.731562,-0.1337914 4.703472,0.00197 0.903091,0.1261278 2.610595,0.5537295 3.388095,0.8484629 3.234301,1.2260547 6.179185,3.7312542 7.979789,6.7883732 0.25405,0.4313324 0.469642,0.7960175 0.479095,0.8104105 0.0094,0.01439 0.11858,-0.02696 0.242504,-0.09189 0.195394,-0.102382 0.254281,-0.103076 0.443398,-0.0053 0.214292,0.110814 0.221063,0.10687 0.389625,-0.2269927 C 33.1845,8.9014747 34.17716,7.569038 35.270411,6.4420455 38.468087,3.1456722 42.587417,1.5278639 47.311724,1.712986 c 3.240463,0.1269774 5.450514,0.8843244 7.675832,2.6303793 5.746647,4.5089989 8.44193,15.0979877 6.384984,25.0847607 -0.845623,4.105623 -2.558165,7.620792 -4.809631,9.872256 -1.362109,1.36211 -4.311198,3.50735 -9.012026,6.555571 -4.222645,2.738148 -5.435225,3.671183 -7.656502,5.89139 -1.581545,1.580783 -2.577928,2.735688 -4.060187,4.706155 -0.976652,1.298332 -2.519094,3.516902 -3.311614,4.763263 -0.257893,0.405574 -0.488704,0.736399 -0.512914,0.735165 -0.02421,-0.0012 -0.275029,-0.368941 -0.557377,-0.817129 l 0,0 z m 0.652977,-0.547716 c 0.05036,0.05036 0.134497,0.09157 0.186962,0.09157 0.05246,0 0.448514,-0.547078 0.880108,-1.215728 3.545533,-5.492959 6.275989,-8.676341 9.555495,-11.140559 0.569997,-0.428295 1.682089,-1.201199 2.471316,-1.717565 4.935688,-3.229264 5.780881,-3.811573 7.726224,-5.323114 0.566365,-0.440068 1.277298,-1.033643 1.57985,-1.319055 5.3701,-5.065881 7.037489,-17.084281 3.603966,-25.977093 C 56.514656,9.8556874 53.991949,6.9162266 50.75667,5.4183589 49.320916,4.753634 47.705835,4.4139757 45.633137,4.3408591 41.058141,4.1794717 37.242155,5.6694044 34.100794,8.8436076 33.415863,9.5356985 32.458923,10.727557 32.126954,11.302001 l -0.14389,0.24899 -0.380672,-0.56787 C 29.445076,7.764934 25.945233,5.3970475 22.230227,4.6421993 19.749587,4.1381615 16.709165,4.2449516 14.51934,4.9130322 10.891564,6.0198085 7.9026294,9.0250393 6.0716086,13.40682 3.4308741,19.726314 3.3648409,28.201359 5.9071835,34.510004 c 0.859762,2.13344 1.9983447,3.915458 3.3748328,5.282021 1.3617077,1.351888 4.1751217,3.402061 8.3378047,6.075873 3.413233,2.192417 4.659595,3.157198 6.613,5.118966 2.19622,2.205623 4.396053,5.083554 6.877046,8.996896 l 0.494475,0.779949 0.204676,-0.13411 c 0.15411,-0.100972 0.2273,-0.111486 0.296248,-0.04254 l 0,0 z"
         style="fill:url(#radialGradient4516);fill-opacity:1;fill-rule:nonzero;stroke:none" />
    </g>
  </g>
</svg>
