<?xml version="1.0" encoding="UTF-8" standalone="no"?>
<!-- Created with Inkscape (http://www.inkscape.org/) -->

<svg
   xmlns:osb="http://www.openswatchbook.org/uri/2009/osb"
   xmlns:dc="http://purl.org/dc/elements/1.1/"
   xmlns:cc="http://creativecommons.org/ns#"
   xmlns:rdf="http://www.w3.org/1999/02/22-rdf-syntax-ns#"
   xmlns:svg="http://www.w3.org/2000/svg"
   xmlns="http://www.w3.org/2000/svg"
   xmlns:xlink="http://www.w3.org/1999/xlink"
   xmlns:sodipodi="http://sodipodi.sourceforge.net/DTD/sodipodi-0.dtd"
   xmlns:inkscape="http://www.inkscape.org/namespaces/inkscape"
   width="1024"
   height="1024"
   id="svg3843"
   version="1.1"
   inkscape:version="0.48.4 r9939"
   sodipodi:docname="HeartIcon.svg"
   inkscape:export-filename="/home/daryld/deve/Heart/res/drawable-xhdpi/ic_launcher.png"
   inkscape:export-xdpi="8.4399996"
   inkscape:export-ydpi="8.4399996">
  <defs
     id="defs3845">
    <linearGradient
       id="linearGradient4524"
       inkscape:collect="always">
      <stop
         id="stop4526"
         offset="0"
         style="stop-color:#ffffff;stop-opacity:1" />
      <stop
         id="stop4528"
         offset="1"
         style="stop-color:#ff0000;stop-opacity:1" />
    </linearGradient>
    <linearGradient
       id="linearGradient3804"
       inkscape:collect="always">
      <stop
         id="stop3806"
         offset="0"
         style="stop-color:#ffffff;stop-opacity:1" />
      <stop
         id="stop3808"
         offset="1"
         style="stop-color:#ffff00;stop-opacity:0.78059071" />
    </linearGradient>
    <linearGradient
       id="linearGradient3798"
       inkscape:collect="always">
      <stop
         id="stop3800"
         offset="0"
         style="stop-color:#ffffff;stop-opacity:1" />
      <stop
         id="stop3802"
         offset="1"
         style="stop-color:#ffff00;stop-opacity:0.78059071" />
    </linearGradient>
    <linearGradient
       inkscape:collect="always"
       id="linearGradient4196">
      <stop
         style="stop-color:#ff0000;stop-opacity:0"
         offset="0"
         id="stop4198" />
      <stop
         style="stop-color:#ff0000;stop-opacity:1"
         offset="1"
         id="stop4200" />
    </linearGradient>
    <linearGradient
       inkscape:collect="always"
       id="linearGradient3870">
      <stop
         style="stop-color:#ff0000;stop-opacity:0"
         offset="0"
         id="stop3872" />
      <stop
         style="stop-color:#ff0000;stop-opacity:0;"
         offset="1"
         id="stop3874" />
    </linearGradient>
    <linearGradient
       inkscape:collect="always"
       id="linearGradient3784">
      <stop
         style="stop-color:#ffff00;stop-opacity:0"
         offset="0"
         id="stop3786" />
      <stop
         style="stop-color:#ffff00;stop-opacity:0.78059071"
         offset="1"
         id="stop3788" />
    </linearGradient>
    <linearGradient
       id="linearGradient4572"
       osb:paint="gradient">
      <stop
         style="stop-color:#ffff00;stop-opacity:1;"
         offset="0"
         id="stop4574" />
      <stop
         style="stop-color:#ffff00;stop-opacity:0;"
         offset="1"
         id="stop4576" />
    </linearGradient>
    <filter
       color-interpolation-filters="sRGB"
       inkscape:collect="always"
       id="filter3867">
      <feGaussianBlur
         inkscape:collect="always"
         stdDeviation="0.083090269"
         id="feGaussianBlur3869" />
    </filter>
    <filter
       color-interpolation-filters="sRGB"
       inkscape:collect="always"
       id="filter5772">
      <feGaussianBlur
         inkscape:collect="always"
         stdDeviation="0.040877432"
         id="feGaussianBlur5774" />
    </filter>
    <filter
       color-interpolation-filters="sRGB"
       inkscape:collect="always"
       id="filter5788">
      <feGaussianBlur
         inkscape:collect="always"
         stdDeviation="0.042225165"
         id="feGaussianBlur5790" />
    </filter>
    <filter
       color-interpolation-filters="sRGB"
       inkscape:collect="always"
       id="filter5854"
       x="-0.18000001"
       width="1.36"
       y="-0.18000001"
       height="1.36">
      <feGaussianBlur
         inkscape:collect="always"
         stdDeviation="0.04453125"
         id="feGaussianBlur5856" />
    </filter>
    <filter
       color-interpolation-filters="sRGB"
       inkscape:collect="always"
       id="filter6102"
       x="-0.6815331"
       width="2.3630662"
       y="-0.6815331"
       height="2.3630662">
      <feGaussianBlur
         inkscape:collect="always"
         stdDeviation="3.1004638"
         id="feGaussianBlur6104" />
    </filter>
    <radialGradient
       inkscape:collect="always"
       xlink:href="#linearGradient3784"
       id="radialGradient3790"
       cx="31.919737"
       cy="32.291191"
       fx="31.919737"
       fy="32.291191"
       r="29.599226"
       gradientTransform="matrix(-2.2171684,-2.2426483,0.44789828,-0.44280948,88.227999,118.17478)"
       gradientUnits="userSpaceOnUse" />
    <radialGradient
       inkscape:collect="always"
       xlink:href="#linearGradient3870"
       id="radialGradient3876"
       cx="-27.222157"
       cy="54.287064"
       fx="-27.222157"
       fy="54.287064"
       r="28.937227"
       gradientTransform="matrix(1,0,0,1.0023131,0,-0.12556949)"
       gradientUnits="userSpaceOnUse" />
    <radialGradient
       inkscape:collect="always"
       xlink:href="#linearGradient4196"
       id="radialGradient4223"
       gradientUnits="userSpaceOnUse"
       gradientTransform="matrix(0.48766789,-0.51281491,2.4781034,2.3565841,-148.49087,-87.613174)"
       cx="-27.222118"
       cy="54.293179"
       fx="-27.222118"
       fy="54.293179"
       r="28.995157" />
    <radialGradient
       inkscape:collect="always"
       xlink:href="#linearGradient3798"
       id="radialGradient4252"
       gradientUnits="userSpaceOnUse"
       gradientTransform="matrix(-2.2171684,-2.2426483,0.44789828,-0.44280948,88.227999,118.17478)"
       cx="31.919737"
       cy="32.291191"
       fx="31.919737"
       fy="32.291191"
       r="29.599226" />
    <radialGradient
       inkscape:collect="always"
       xlink:href="#linearGradient3804"
       id="radialGradient4254"
       gradientUnits="userSpaceOnUse"
       gradientTransform="matrix(-2.2171684,-2.2426483,0.44789828,-0.44280948,88.227999,118.17478)"
       cx="31.919737"
       cy="32.291191"
       fx="31.919737"
       fy="32.291191"
       r="29.599226" />
    <radialGradient
       inkscape:collect="always"
       xlink:href="#linearGradient4196"
       id="radialGradient4513"
       gradientUnits="userSpaceOnUse"
       gradientTransform="matrix(0.48766789,-0.51281491,2.4781034,2.3565841,-148.49087,-87.613174)"
       cx="-27.222118"
       cy="54.293179"
       fx="-27.222118"
       fy="54.293179"
       r="28.995157" />
    <radialGradient
       inkscape:collect="always"
       xlink:href="#linearGradient4524"
       id="radialGradient4516"
       gradientUnits="userSpaceOnUse"
       gradientTransform="matrix(0.50524466,-0.53129804,2.5674204,2.4415213,-93.621186,-115.19569)"
       cx="-27.222118"
       cy="54.293179"
       fx="-27.222118"
       fy="54.293179"
       r="28.995157" />
    <radialGradient
       inkscape:collect="always"
       xlink:href="#linearGradient3798"
       id="radialGradient3069"
       gradientUnits="userSpaceOnUse"
       gradientTransform="matrix(-2.2171684,-2.2426483,0.44789828,-0.44280948,88.227999,118.17478)"
       cx="31.919737"
       cy="32.291191"
       fx="31.919737"
       fy="32.291191"
       r="29.599226" />
    <radialGradient
       inkscape:collect="always"
       xlink:href="#linearGradient3804"
       id="radialGradient3071"
       gradientUnits="userSpaceOnUse"
       gradientTransform="matrix(-2.2171684,-2.2426483,0.44789828,-0.44280948,88.227999,118.17478)"
       cx="31.919737"
       cy="32.291191"
       fx="31.919737"
       fy="32.291191"
       r="29.599226" />
    <radialGradient
       inkscape:collect="always"
       xlink:href="#linearGradient3784"
       id="radialGradient3073"
       gradientUnits="userSpaceOnUse"
       gradientTransform="matrix(-2.2171684,-2.2426483,0.44789828,-0.44280948,88.227999,118.17478)"
       cx="31.919737"
       cy="32.291191"
       fx="31.919737"
       fy="32.291191"
       r="29.599226" />
    <radialGradient
       inkscape:collect="always"
       xlink:href="#linearGradient4524"
       id="radialGradient3075"
       gradientUnits="userSpaceOnUse"
       gradientTransform="matrix(0.50524466,-0.53129804,2.5674204,2.4415213,-93.621186,-115.19569)"
       cx="-27.222118"
       cy="54.293179"
       fx="-27.222118"
       fy="54.293179"
       r="28.995157" />
    <radialGradient
       inkscape:collect="always"
       xlink:href="#linearGradient4524"
       id="radialGradient3094"
       gradientUnits="userSpaceOnUse"
       gradientTransform="matrix(0.50524466,-0.53129804,2.5674204,2.4415213,-93.621186,-115.19569)"
       cx="-27.222118"
       cy="54.293179"
       fx="-27.222118"
       fy="54.293179"
       r="28.995157" />
    <radialGradient
       inkscape:collect="always"
       xlink:href="#linearGradient4524"
       id="radialGradient3097"
       gradientUnits="userSpaceOnUse"
       gradientTransform="matrix(8.2116657,-8.4765797,41.727899,38.953183,-1529.4816,-2798.7859)"
       cx="-27.222118"
       cy="54.293179"
       fx="-27.222118"
       fy="54.293179"
       r="28.995157" />
  </defs>
  <sodipodi:namedview
     id="base"
     pagecolor="#ffffff"
     bordercolor="#666666"
     borderopacity="1.0"
     inkscape:pageopacity="0.0"
     inkscape:pageshadow="2"
     inkscape:zoom="0.62714646"
     inkscape:cx="549.49654"
     inkscape:cy="510.3456"
     inkscape:current-layer="layer1"
     showgrid="false"
     inkscape:document-units="px"
     inkscape:grid-bbox="true"
     showguides="false"
     inkscape:guide-bbox="true"
     inkscape:window-width="1383"
     inkscape:window-height="827"
     inkscape:window-x="49"
     inkscape:window-y="103"
     inkscape:window-maximized="0" />
  <metadata
     id="metadata3848">
    <rdf:RDF>
      <cc:Work
         rdf:about="">
        <dc:format>image/svg+xml</dc:format>
        <dc:type
           rdf:resource="http://purl.org/dc/dcmitype/StillImage" />
        <dc:title></dc:title>
      </cc:Work>
    </rdf:RDF>
  </metadata>
  <g
     inkscape:groupmode="layer"
     id="layer2"
     inkscape:label="Background fill"
     style="display:inline"
     transform="translate(0,960)">
    <path
       style="fill:url(#radialGradient3876);fill-opacity:1;fill-rule:nonzero;stroke:none"
       d="m -28.442162,81.509955 c -3.160483,-4.764447 -6.161233,-8.197498 -9.257041,-10.590655 -0.645974,-0.499356 -2.918246,-2.062367 -5.049496,-3.473359 -7.653144,-5.066754 -9.166532,-6.440634 -10.879611,-9.876705 -1.018241,-2.042373 -1.818673,-4.697469 -2.250655,-7.465604 -0.313127,-2.006514 -0.375523,-5.913686 -0.128754,-8.0625 0.960633,-8.365012 4.68012,-14.321612 10.07152,-16.129109 1.846105,-0.618917 5.198486,-0.81618 7.375,-0.433964 4.355519,0.764869 8.113706,3.367168 10.385618,7.191365 0.417303,0.702424 0.555048,0.847382 0.718364,0.755985 0.12517,-0.07005 0.296151,-0.06272 0.449315,0.01925 0.158715,0.08494 0.261944,0.08825 0.288277,0.0093 0.132653,-0.397954 1.381138,-2.227287 2.015594,-2.953332 2.366536,-2.708159 5.496823,-4.481532 8.891545,-5.037245 1.41049,-0.230897 4.169518,-0.227405 5.501286,0.007 4.0786302,0.717763 7.2656127,3.332558 9.4277602,7.735111 1.73334124,3.52942 2.5869687,7.561417 2.5984075,12.27323 0.013312,5.48328 -1.26873626,10.423514 -3.6331637,14 -1.3853275,2.095477 -3.5317125,3.840005 -9.955504,8.091586 -4.639997,3.070979 -5.797743,3.950332 -7.692455,5.842725 -2.192556,2.189871 -4.010641,4.469485 -6.357947,7.971939 -0.702651,1.048437 -1.290816,1.90625 -1.307035,1.90625 -0.01622,0 -0.561179,-0.801529 -1.211025,-1.781177 l 0,0 z m 3.030915,-1.531323 c 2.727769,-4.100404 5.081775,-6.88469 7.600861,-8.990198 0.584824,-0.488807 2.806699,-2.048553 4.9375,-3.466103 4.3981713,-2.925953 6.0988663,-4.167479 7.4111812,-5.410244 3.2040788,-3.034269 5.150505,-8.776969 5.150505,-15.195955 0,-5.218605 -1.2654187,-9.988941 -3.5895562,-13.5318 -0.32678,-0.498135 -1.06134,-1.391931 -1.6323563,-1.986214 -2.1615949,-2.249672 -4.4367349,-3.32181 -7.6391587,-3.599882 -5.398094,-0.468726 -10.281012,1.66099 -13.352364,5.823716 l -0.75134,1.01832 -0.661508,-0.924965 c -1.322777,-1.849592 -3.521697,-3.682892 -5.522737,-4.604458 -2.122756,-0.977621 -3.842036,-1.333815 -6.475979,-1.34167 -3.198192,-0.0095 -5.321791,0.61795 -7.5,2.216122 -3.185121,2.33695 -5.424157,6.505041 -6.393353,11.901578 -0.379296,2.111942 -0.465448,6.485473 -0.173184,8.791757 0.471355,3.719511 1.703408,7.243246 3.356821,9.600677 1.250065,1.782339 3.441859,3.589948 7.959716,6.564505 5.312748,3.497915 5.874602,3.92269 7.937499,6.000941 1.928355,1.942706 3.398888,3.801685 5.505413,6.959689 1.528561,2.291549 1.557806,2.32562 1.984909,2.3125 0.418432,-0.01285 0.482588,-0.08712 1.847131,-2.138316 l 0,0 z"
       id="path3868"
       inkscape:connector-curvature="0" />
  </g>
  <g
     inkscape:groupmode="layer"
     id="layer3"
     inkscape:label="Swigly lines"
     style="display:inline"
     transform="translate(0,960)" />
  <g
     id="layer1"
     inkscape:label="Outline"
     inkscape:groupmode="layer"
     style="display:inline"
     transform="translate(0,960)">
    <g
       id="g3895"
       style="fill:#ffff00;fill-opacity:1;fill-rule:nonzero;stroke:none;display:inline"
       transform="matrix(16.838644,0,0,16.52951,-27.733773,-976.44888)">
      <g
         id="g6169"
         style="fill:url(#radialGradient3073);fill-opacity:1">
        <path
           style="fill:url(#radialGradient3069);fill-opacity:1;fill-rule:nonzero;stroke:none"
           d="m 31.8418,10.87105 c 0,0 4.476971,-9.98452762 16.677815,-8.4393757 15.188888,1.923567 16.632984,29.9719027 6.597259,38.0149947 -10.4243,8.354513 -13.703399,6.523514 -23.275074,21.864386"
           id="path3853"
           inkscape:connector-curvature="0"
           sodipodi:nodetypes="cssc" />
        <path
           style="fill:url(#radialGradient3071);fill-opacity:1;fill-rule:nonzero;stroke:none"
           d="m 31.997669,10.873179 c 0,0 -4.476971,-9.98452512 -16.677815,-8.439373 C 0.13096889,4.3573726 -1.3131269,32.405706 8.7225982,40.448798 19.146895,48.803311 22.425994,46.972312 31.997669,62.313184"
           id="path3853-7"
           inkscape:connector-curvature="0"
           sodipodi:nodetypes="cssc" />
      </g>
    </g>
    <g
       style="display:inline"
       id="g6054"
       transform="matrix(19.459349,0,0,19.102104,-69.480944,-1042.867)">
      <g
         inkscape:export-ydpi="1698.0615"
         inkscape:export-xdpi="1698.0615"
         transform="matrix(1.3314255,5.6020814e-4,-0.02605102,1.3140252,-1.0606921,2.286039)"
         style="stroke:#0000ff;stroke-width:0.55000001;stroke-miterlimit:4;stroke-opacity:1;stroke-dasharray:none;display:inline;filter:url(#filter3867)"
         id="g5858">
        <path
           style="fill:none;stroke:#0000ff;stroke-width:0.55000001;stroke-linecap:butt;stroke-linejoin:miter;stroke-miterlimit:4;stroke-opacity:1;stroke-dasharray:none;filter:url(#filter5772)"
           d="m 5.5279018,22.571429 1.7578125,0 c 1.4945492,-2.298162 2.6209837,-1.577783 3.6428567,0 l 5.571429,0 c 0.929246,-2.501655 1.558452,0.04841 2.054341,-5.97e-4 l 0.517088,5.97e-4 c 1.073904,8.968713 0.876383,-38.481939 2.571428,0 0.769809,16.40112 1.210388,10.456303 2.357143,0 l 2.785714,0 c 1.026619,-2.116107 2.226817,-1.834065 3.285715,0 l 3.928571,0"
           id="path3124"
           inkscape:connector-curvature="0"
           sodipodi:nodetypes="ccccccccccc" />
        <path
           sodipodi:type="arc"
           style="fill:none;stroke:#0000ff;stroke-width:0.55000001;stroke-miterlimit:4;stroke-opacity:1;stroke-dasharray:none;marker-start:none;marker-end:none;filter:url(#filter5788)"
           id="path3916"
           sodipodi:cx="34.333347"
           sodipodi:cy="22.6357"
           sodipodi:rx="1.4418349"
           sodipodi:ry="1.3731761"
           d="m 35.775182,22.6357 c 0,0.758384 -0.645531,1.373176 -1.441835,1.373176 -0.796303,0 -1.441835,-0.614792 -1.441835,-1.373176 0,-0.758384 0.645532,-1.373176 1.441835,-1.373176 0.796304,0 1.441835,0.614792 1.441835,1.373176 z"
           transform="translate(-0.31772232,-0.113166)" />
        <path
           sodipodi:type="arc"
           style="fill:#007bff;fill-opacity:1;stroke:#0000ff;stroke-width:0.55000001;stroke-miterlimit:4;stroke-opacity:1;stroke-dasharray:none;filter:url(#filter5854)"
           id="path5792"
           sodipodi:cx="33.976562"
           sodipodi:cy="22.570312"
           sodipodi:rx="0.296875"
           sodipodi:ry="0.296875"
           d="m 34.273437,22.570312 c 0,0.16396 -0.132915,0.296875 -0.296875,0.296875 -0.163959,0 -0.296875,-0.132915 -0.296875,-0.296875 0,-0.163959 0.132916,-0.296875 0.296875,-0.296875 0.16396,0 0.296875,0.132916 0.296875,0.296875 z"
           transform="translate(0.0234375,0.01104854)" />
      </g>
      <path
         transform="matrix(1.3314255,5.6020814e-4,-0.02605102,1.3140252,0.16347285,2.7793182)"
         d="m 38.615349,22 c 0,3.014977 -2.444122,5.459099 -5.459099,5.459099 -3.014977,0 -5.459099,-2.444122 -5.459099,-5.459099 0,-3.014977 2.444122,-5.459099 5.459099,-5.459099 3.014977,0 5.459099,2.444122 5.459099,5.459099 z"
         sodipodi:ry="5.4590988"
         sodipodi:rx="5.4590988"
         sodipodi:cy="22"
         sodipodi:cx="33.15625"
         id="path6068"
         style="fill:#3c82ff;fill-opacity:1;stroke:#0000ff;stroke-width:0.2;stroke-miterlimit:4;stroke-opacity:1;stroke-dasharray:none;display:inline;filter:url(#filter6102)"
         sodipodi:type="arc" />
    </g>
    <path
       style="fill:none;stroke:#000000;stroke-width:16.4655571px;stroke-linecap:butt;stroke-linejoin:miter;stroke-opacity:1"
       d="m 510.59564,-756.44938 c 0,0 67.32253,-147.38614 250.79296,-124.57745 228.4032,28.39464 250.1188,442.42884 99.20641,561.15658 C 703.8394,-196.5455 654.52988,-223.5737 510.59564,2.8798594"
       id="path3853-3"
       inkscape:connector-curvature="0"
       sodipodi:nodetypes="cssc" />
    <path
       style="fill:none;stroke:#000000;stroke-width:16.46555710000000161px;stroke-linecap:round;stroke-linejoin:miter;stroke-opacity:1"
       d="m 512.93951,-756.41795 c 0,0 -67.32253,-147.38611 -250.79296,-124.57741 -228.403162,28.39463 -250.118781,442.42881 -99.20637,561.15653 156.75556,123.32475 206.06509,96.29656 349.99933,322.7501285"
       id="path3853-7-1"
       inkscape:connector-curvature="0"
       sodipodi:nodetypes="cssc" />
    <path
       style="fill:none;stroke:#000000;stroke-width:18.43772316000000089px;stroke-linecap:butt;stroke-linejoin:miter;stroke-opacity:1"
       d="m 511.18215,-801.6265 c 0,0 75.38611,-165.03936 280.83177,-139.49875 255.76028,31.79562 280.07688,495.42089 111.08889,628.36927 -175.53107,138.09601 -230.74665,107.8305 -391.92066,361.407609"
       id="path3853-3-0"
       inkscape:connector-curvature="0"
       sodipodi:nodetypes="cssc" />
    <path
       style="fill:none;stroke:#000000;stroke-width:18.43799999999999883;stroke-linecap:round;stroke-linejoin:miter;stroke-opacity:1;stroke-miterlimit:4;stroke-dasharray:none"
       d="m 513.80677,-801.59131 c 0,0 -75.38612,-165.03931 -280.83177,-139.49871 -255.760216,31.79562 -280.076833,495.42085 -111.08884,628.36923 175.53101,138.09602 230.74659,107.8305 391.92061,361.40761"
       id="path3853-7-1-0"
       inkscape:connector-curvature="0"
       sodipodi:nodetypes="cssc" />
    <path
       style="fill:url(#radialGradient3097);fill-opacity:1;fill-rule:nonzero;stroke:none"
       d="m 503.31879,14.473668 c -11.50715,-17.930673 -34.26669,-50.202214 -50.43103,-71.507944 -24.20345,-31.90178 -40.4283,-50.429034 -67.49848,-77.076824 -37.24856,-36.66736 -59.63604,-53.68788 -124.44006,-94.60805 -54.1541,-34.19529 -89.33767,-58.30203 -123.08914,-84.33703 -42.826176,-33.03495 -69.684234,-72.72993 -90.029086,-133.05885 -37.695981,-111.78039 -29.532825,-255.65052 20.141375,-354.97854 15.548802,-31.09121 30.920194,-52.76463 52.352181,-73.81568 33.15539,-32.56613 69.9088,-50.54542 116.00684,-56.74901 15.99661,-2.15272 60.64852,-2.13457 76.44482,0.0314 14.67781,2.01231 42.42961,8.83447 55.0662,13.53678 52.56661,19.56106 100.42937,59.53019 129.69432,108.30491 4.12903,6.88168 7.63302,12.70003 7.78666,12.92966 0.15277,0.22959 1.92726,-0.43013 3.94138,-1.46605 3.17571,-1.63347 4.13279,-1.64452 7.20648,-0.0846 3.48285,1.76796 3.5929,1.70505 6.33252,-3.62156 8.66839,-16.85352 24.80194,-38.11185 42.57039,-56.09242 51.97134,-52.59189 118.9222,-78.40317 195.70565,-75.44964 52.66676,2.02585 88.58639,14.10893 124.75415,41.96631 93.39939,71.9387 137.20544,240.88042 103.77418,400.21411 -13.74378,65.50305 -41.57747,121.58571 -78.17021,157.50663 -22.13815,21.73175 -70.06925,55.95792 -146.4711,104.59068 -68.63002,43.6857 -88.3379,58.57178 -124.43998,93.99401 -25.70462,25.22056 -41.89868,43.646463 -65.98961,75.084223 -15.87338,20.714202 -40.94246,56.1103146 -53.82317,75.995346 -4.19149,6.470719 -7.94283,11.748858 -8.33631,11.72917 -0.39348,-0.01915 -4.47001,-5.886259 -9.05897,-13.036862 l 0,0 z m 10.61274,-8.7385199 c 0.81849,0.8034672 2.18596,1.460951 3.03866,1.460951 0.85263,0 7.28964,-8.7283407 14.30427,-19.3962981 57.62501,-87.637261 102.00271,-138.426441 155.30402,-177.741741 9.26408,-6.83322 27.33875,-19.16449 40.16593,-27.40284 80.219,-51.5212 93.95579,-60.81163 125.57316,-84.92747 9.20505,-7.02105 20.75974,-16.49123 25.67707,-21.04483 87.27943,-80.82345 114.37925,-272.57068 58.57472,-414.4508 -25.91568,-65.88933 -66.91685,-112.78688 -119.49936,-136.68456 -23.33509,-10.60534 -49.58476,-16.02441 -83.27201,-17.19095 -74.35673,-2.57485 -136.37737,21.19624 -187.43344,71.83898 -11.13208,11.04194 -26.68509,30.05742 -32.08053,39.22237 l -2.33862,3.9725 -6.18701,-9.06006 c -35.06253,-51.34448 -91.94495,-89.12286 -152.32439,-101.16606 -40.31747,-8.04166 -89.73299,-6.33788 -125.32389,4.32099 -58.9617,17.65804 -107.5404,65.60491 -137.299709,135.5139 -42.919462,100.82419 -43.99269,236.03906 -2.672377,336.69016 13.973586,34.03791 32.478796,62.46907 54.850656,84.27186 22.13163,21.56866 67.85762,54.27809 135.51308,96.93734 55.47477,34.97886 75.7317,50.37143 107.4801,81.6704 35.69484,35.18955 71.44839,81.105424 111.7716,143.5407294 l 8.03663,12.4436745 3.32657,-2.1396543 c 2.50472,-1.6109549 3.69427,-1.7787002 4.81487,-0.6787032 l 0,0 z"
       id="path4186"
       inkscape:connector-curvature="0" />
  </g>
</svg>
